<mxfile host="app.diagrams.net" modified="2023-05-01T00:33:52.916Z" agent="Mozilla/5.0 (Macintosh; Intel Mac OS X 10_15_7) AppleWebKit/537.36 (KHTML, like Gecko) Chrome/112.0.0.0 Safari/537.36" etag="GOfz6NFPRphGiOOOlgCq" version="21.2.3" type="github">
  <diagram id="3228e29e-7158-1315-38df-8450db1d8a1d" name="Page-1">
    <mxGraphModel dx="1232" dy="1838" grid="0" gridSize="10" guides="1" tooltips="1" connect="1" arrows="1" fold="1" page="1" pageScale="1" pageWidth="919" pageHeight="300" background="#EFF1F3" math="0" shadow="0">
      <root>
        <mxCell id="0" />
        <mxCell id="1" parent="0" />
        <mxCell id="GdjG1Uhx_Fd8zdyyqZ3t-11" value="" style="rounded=1;whiteSpace=wrap;html=1;fillColor=none;dashed=1;strokeWidth=2;strokeColor=#4A919B;" parent="1" vertex="1">
          <mxGeometry x="183" y="-189.5" width="470" height="134" as="geometry" />
        </mxCell>
        <mxCell id="LvesvwtV2vatUiFBe1HR-21533" value="" style="shape=image;verticalLabelPosition=bottom;verticalAlign=top;imageAspect=0;aspect=fixed;image=data:image/svg+xml,PHN2ZyB4bWxuczp4bGluaz0iaHR0cDovL3d3dy53My5vcmcvMTk5OS94bGluayIgeG1sbnM9Imh0dHA6Ly93d3cudzMub3JnLzIwMDAvc3ZnIiBoZWlnaHQ9IjIwMCIgd2lkdGg9IjIwMCIgdmVyc2lvbj0iMS4xIiB2aWV3Qm94PSIwIDAgMTAyNCAxMDI0IiBjbGFzcz0iaWNvbiI+PGRlZnM+PHN0eWxlIHR5cGU9InRleHQvY3NzIj5AZm9udC1mYWNlIHsgZm9udC1mYW1pbHk6IGZlZWRiYWNrLWljb25mb250OyBzcmM6IHVybCgiLy9hdC5hbGljZG4uY29tL3QvZm9udF8xMDMxMTU4X3U2OXc4eWh4ZHUud29mZjI/dD0xNjMwMDMzNzU5OTQ0IikgZm9ybWF0KCJ3b2ZmMiIpLCB1cmwoIi8vYXQuYWxpY2RuLmNvbS90L2ZvbnRfMTAzMTE1OF91Njl3OHloeGR1LndvZmY/dD0xNjMwMDMzNzU5OTQ0IikgZm9ybWF0KCJ3b2ZmIiksIHVybCgiLy9hdC5hbGljZG4uY29tL3QvZm9udF8xMDMxMTU4X3U2OXc4eWh4ZHUudHRmP3Q9MTYzMDAzMzc1OTk0NCIpIGZvcm1hdCgidHJ1ZXR5cGUiKTsgfSYjeGE7PC9zdHlsZT48L2RlZnM+PHBhdGggZmlsbD0iIzRBOTE5QiIgZD0iTTg0Mi4zOTQ1OTUgNzk5LjczMzIzNyA2NDAuOTczMDc2IDc5OS43MzMyMzcgNjQwLjk3MzA3NiA5MTQuODI1NTA4bDU3LjU0OTAwNSAwYzE1LjkwMzg1MyAwIDI4Ljc3NDUwMyAxMi44NjkwOTkgMjguNzc0NTAzIDI4Ljc3MzMyNCAwIDE1LjkwMzIwMi0xMi44NzA2NDkgMjguNzcyMy0yOC43NzQ1MDMgMjguNzcyM0wzNTMuMjI4MDUgOTcyLjM3MTEzMmMtMTUuOTA0ODc3IDAtMjguNzc0NTAzLTEyLjg2OTA5OS0yOC43NzQ1MDMtMjguNzcyMyAwLTE1LjkwNDIyNSAxMi44Njk2MjYtMjguNzczMzI0IDI4Ljc3NDUwMy0yOC43NzMzMjRsNTcuNTQ5MDA1IDBMNDEwLjc3NzA1NSA3OTkuNzMzMjM3IDE4MC41ODEwMzQgNzk5LjczMzIzN2MtNjMuNTYyMTk5IDAtMTE1LjA5ODAxMS01MS41MzM3LTExNS4wOTgwMTEtMTE1LjA5MzI5NUw2NS40ODMwMjMgMTY2LjcyMDExNmMwLTYzLjU1OTU5NSA1MS41MzU4MTItMTE1LjA5MzI5NSAxMTUuMDk4MDExLTExNS4wOTMyOTVsNjYxLjgxMjUzNyAwYzYzLjU2MTE3NiAwIDExNS4wOTgwMTEgNTEuNTMzNyAxMTUuMDk4MDExIDExNS4wOTMyOTVsMCA1MTcuOTE5ODI2Qzk1Ny40OTE1ODIgNzQ4LjE5ODUxMyA5MDUuOTU1NzcgNzk5LjczMzIzNyA4NDIuMzk0NTk1IDc5OS43MzMyMzd6TTU4My40MjQwNzEgOTE0LjgyNTUwOCA1ODMuNDI0MDcxIDc5OS43MzMyMzcgNDY4LjMyNjA2IDc5OS43MzMyMzcgNDY4LjMyNjA2IDkxNC44MjU1MDggNTgzLjQyNDA3MSA5MTQuODI1NTA4ek04OTkuOTQyNTc3IDE2Ni43MjAxMTZjMC0zMS43Nzk3OTctMjUuNzY3OTA2LTU3LjU0NjY0Ny01Ny41NDc5ODItNTcuNTQ2NjQ3TDE4MC41ODEwMzQgMTA5LjE3MzQ2OGMtMzEuNzgxMDk5IDAtNTcuNTQ5MDA1IDI1Ljc2Njg1LTU3LjU0OTAwNSA1Ny41NDY2NDdsMCA0MDIuODI2NTMyTDg5OS45NDI1NzcgNTY5LjU0NjY0NyA4OTkuOTQyNTc3IDE2Ni43MjAxMTZ6TTg5OS45NDI1NzcgNjI3LjA5MzI5NSAxMjMuMDMzMDUyIDYyNy4wOTMyOTVsMCA1Ny41NDY2NDdjMCAzMS43Nzk3OTcgMjUuNzY3OTA2IDU3LjU0NTYyNCA1Ny41NDkwMDUgNTcuNTQ1NjI0bDY2MS44MTI1MzcgMGMzMS43ODEwOTkgMCA1Ny41NDc5ODItMjUuNzY2ODUgNTcuNTQ3OTgyLTU3LjU0NTYyNEw4OTkuOTQyNTc3IDYyNy4wOTMyOTV6Ii8+PC9zdmc+" parent="1" vertex="1">
          <mxGeometry x="322.25" y="-279" width="83" height="83" as="geometry" />
        </mxCell>
        <mxCell id="LvesvwtV2vatUiFBe1HR-21535" value="" style="shape=flexArrow;endArrow=block;startArrow=classic;html=1;rounded=0;fillColor=#FDD276;strokeColor=none;fontColor=#4D4D4D;endFill=0;" parent="1" edge="1">
          <mxGeometry width="100" height="100" relative="1" as="geometry">
            <mxPoint x="812" y="-120.79000000000002" as="sourcePoint" />
            <mxPoint x="895" y="-120.79000000000002" as="targetPoint" />
          </mxGeometry>
        </mxCell>
        <mxCell id="LvesvwtV2vatUiFBe1HR-21542" value="&lt;font style=&quot;font-size: 18px;&quot; color=&quot;#595959&quot;&gt;data&lt;/font&gt;" style="rounded=1;whiteSpace=wrap;html=1;fontColor=#4A919B;fillColor=#9AC7BF;strokeColor=none;" parent="1" vertex="1">
          <mxGeometry x="831" y="-183" width="45" height="44" as="geometry" />
        </mxCell>
        <mxCell id="C1_GPMfrCVTuBfPum0Td-7" style="edgeStyle=orthogonalEdgeStyle;rounded=0;orthogonalLoop=1;jettySize=auto;html=1;exitX=1;exitY=0.5;exitDx=0;exitDy=0;entryX=-0.008;entryY=0.805;entryDx=0;entryDy=0;entryPerimeter=0;startArrow=classicThin;startFill=1;endArrow=none;endFill=0;strokeColor=#FDD276;fontColor=#4D4D4D;strokeWidth=2;" parent="1" source="C1_GPMfrCVTuBfPum0Td-2" edge="1">
          <mxGeometry relative="1" as="geometry">
            <mxPoint x="313.72208" y="-86.42499999999995" as="targetPoint" />
          </mxGeometry>
        </mxCell>
        <mxCell id="C1_GPMfrCVTuBfPum0Td-2" value="&lt;font&gt;&lt;span style=&quot;font-size: 16px;&quot;&gt;ikcp_recv&lt;/span&gt;&lt;/font&gt;" style="text;html=1;strokeColor=none;fillColor=#9AC7BF;align=center;verticalAlign=middle;whiteSpace=wrap;rounded=1;fontColor=#4D4D4D;" parent="1" vertex="1">
          <mxGeometry x="194" y="-110" width="94.51" height="47" as="geometry" />
        </mxCell>
        <mxCell id="C1_GPMfrCVTuBfPum0Td-5" style="edgeStyle=orthogonalEdgeStyle;rounded=0;orthogonalLoop=1;jettySize=auto;html=1;exitX=1;exitY=0.5;exitDx=0;exitDy=0;entryX=-0.019;entryY=0.205;entryDx=0;entryDy=0;entryPerimeter=0;strokeColor=#FDD276;startArrow=none;startFill=0;endArrow=classicThin;endFill=1;fontColor=#4D4D4D;strokeWidth=2;" parent="1" source="C1_GPMfrCVTuBfPum0Td-3" edge="1">
          <mxGeometry relative="1" as="geometry">
            <mxPoint x="312.63869" y="-155.42499999999995" as="targetPoint" />
          </mxGeometry>
        </mxCell>
        <mxCell id="C1_GPMfrCVTuBfPum0Td-3" value="&lt;span style=&quot;font-size: 16px;&quot;&gt;ikcp_send&lt;/span&gt;" style="text;html=1;strokeColor=none;fillColor=#9AC7BF;align=center;verticalAlign=middle;whiteSpace=wrap;rounded=1;fontColor=#4D4D4D;" parent="1" vertex="1">
          <mxGeometry x="194" y="-179" width="94.51" height="47" as="geometry" />
        </mxCell>
        <mxCell id="GdjG1Uhx_Fd8zdyyqZ3t-2" value="" style="shape=flexArrow;endArrow=none;startArrow=classic;html=1;rounded=0;fillColor=#F19C99;strokeColor=none;fontColor=#4D4D4D;endFill=0;" parent="1" edge="1">
          <mxGeometry width="100" height="100" relative="1" as="geometry">
            <mxPoint x="133.01" y="-84" as="sourcePoint" />
            <mxPoint x="175.01" y="-84" as="targetPoint" />
          </mxGeometry>
        </mxCell>
        <mxCell id="GdjG1Uhx_Fd8zdyyqZ3t-4" value="" style="shape=flexArrow;endArrow=none;startArrow=classic;html=1;rounded=0;fillColor=#F19C99;strokeColor=none;fontColor=#4D4D4D;endFill=0;" parent="1" edge="1">
          <mxGeometry width="100" height="100" relative="1" as="geometry">
            <mxPoint x="175.01" y="-155.61" as="sourcePoint" />
            <mxPoint x="133.01" y="-155.61" as="targetPoint" />
          </mxGeometry>
        </mxCell>
        <mxCell id="GdjG1Uhx_Fd8zdyyqZ3t-9" value="" style="shape=image;verticalLabelPosition=bottom;labelBackgroundColor=default;verticalAlign=top;aspect=fixed;imageAspect=0;image=data:image/svg+xml,PHN2ZyB4bWxuczp4bGluaz0iaHR0cDovL3d3dy53My5vcmcvMTk5OS94bGluayIgeG1sbnM9Imh0dHA6Ly93d3cudzMub3JnLzIwMDAvc3ZnIiBoZWlnaHQ9IjEyOCIgd2lkdGg9IjEzNy43NSIgdmVyc2lvbj0iMS4xIiB2aWV3Qm94PSIwIDAgMTEwMiAxMDI0IiBjbGFzcz0iaWNvbiI+PHBhdGggZmlsbD0iIzRBOTE5QiIgZD0iTTk0MC4yNjgzMDggMTAyNEg3NjAuNjQ4MjA1di04MS4xMzIzMDhoMTc5LjY5ODg3MmE4MS4zOTQ4NzIgODEuMzk0ODcyIDAgMCAwIDgxLjI2MzU5LTgxLjM5NDg3MVYxNjIuNTI3MTc5YTgxLjM5NDg3MiA4MS4zOTQ4NzIgMCAwIDAtODEuMjM3MzM0LTgxLjM5NDg3MUg3MzQuMzkxNzk1VjBoMjA1Ljk1NTI4MkExNjIuNzg5NzQ0IDE2Mi43ODk3NDQgMCAwIDEgMTEwMi43NjkyMzEgMTYyLjUyNzE3OXY2OTguOTQ1NjQyQTE2My4wMjYwNTEgMTYzLjAyNjA1MSAwIDAgMSA5NDAuMjY4MzA4IDEwMjR6IG0tMjU1Ljg5NDk3NS02OTAuMDE4NDYyYTMzLjIxNDM1OSAzMy4yMTQzNTkgMCAwIDEtMzcuMjU3ODQ2LTI0LjY4MTAyNWMtMC4yMTAwNTEtMi4xMDA1MTMtNS41OTI2MTUtNDUuNDIzNTktNDEuNjY4OTIzLTQ1LjQyMzU5LTM4LjgzMzIzMSAwLTY0LjAzOTM4NSA2Ni42OTEyODItNzQuNjk5NDg3IDk1LjMxMDc2OWwtMi45NDA3MTggNy42MTQzNTljLTIuNjI1NjQxIDYuODI2NjY3LTkuMjY4NTEzIDI3LjA0NDEwMy0xOC4zNzk0ODcgNTUuMTM4NDYyaDg0LjQ2Njg3MmEyNy43NzkyODIgMjcuNzc5MjgyIDAgMSAxIDAgNTMuODI1NjQxaC0xMDEuNjkxMDc3cS00Ni4xMzI1MTMgMTQ1LjcyMzA3Ny05MS4zNDYwNTIgMjkxLjE4MzU5QTExOC4yODUxMjggMTE4LjI4NTEyOCAwIDAgMSAyODkuMTg4MTAzIDg0MC4yMDUxMjhhMTM4LjYzMzg0NiAxMzguNjMzODQ2IDAgMCAxLTEzMC4yMDU1MzktODcuNjk2NDEgMjYuNzgxNTM4IDI2Ljc4MTUzOCAwIDAgMSAyMy42MzA3NjktMzMuMzQ1NjQxIDM2Ljk2OTAyNiAzNi45NjkwMjYgMCAwIDEgNDIuOTI5MjMxIDE4LjM3OTQ4NyA3Ni45MzEyODIgNzYuOTMxMjgyIDAgMCAwIDYzLjY5ODA1MSA0OC44MzY5MjMgNTQuNzQ0NjE1IDU0Ljc0NDYxNSAwIDAgMCA0NS4xMDg1MTMtMzQuMTMzMzMzYzUuMDkzNzQ0LTE2LjI3ODk3NCA1MS4wMTYyMDUtMTY0LjM2NTEyOCA4Ni42NDYxNTQtMjc2LjQ4aC0xMDQuMDI3ODk3YTI3Ljc3OTI4MiAyNy43NzkyODIgMCAxIDEgMC01My44MjU2NDFoMTIxLjE0NzA3N2MxMS4zOTUyODItMzUuNDQ2MTU0IDIwLjE2NDkyMy02MS45NjUxMjggMjMuNjMwNzY5LTcwLjYyOTc0NGwyLjYyNTY0MS03LjM1MTc5NWMxNi4zNTc3NDQtNDMuMzIzMDc3IDUwLjQxMjMwOC0xMzMuOTA3NjkyIDE0MS4xODA3MTgtMTMzLjkwNzY5MmExMDYuMDIzMzg1IDEwNi4wMjMzODUgMCAwIDEgMTEwLjc0OTUzOCA5NC43ODU2NDEgMzAuMTk0ODcyIDMwLjE5NDg3MiAwIDAgMS0zMS45Mjc3OTUgMjkuMTQ0NjE1ek01MjQuNzYwNjE1IDBoNzkuNDI1NjQxdjc5LjI5NDM1OWgtNzkuNDI1NjQxVjB6TTgxLjI2MzU5IDE2Mi41MjcxNzl2Njk4Ljk0NTY0MmE4MS4zOTQ4NzIgODEuMzk0ODcyIDAgMCAwIDgxLjIzNzMzMyA4MS4xMzIzMDdoMjMyLjIzNzk0OVYxMDI0SDE2Mi41MDA5MjNBMTYzLjAyNjA1MSAxNjMuMDI2MDUxIDAgMCAxIDAgODYxLjQ3MjgyMVYxNjIuNTI3MTc5QTE2Mi43ODk3NDQgMTYyLjc4OTc0NCAwIDAgMSAxNjIuNTAwOTIzIDBoMjMyLjIzNzk0OXY4MS4xMzIzMDhIMTYyLjUwMDkyM0E4MS4zOTQ4NzIgODEuMzk0ODcyIDAgMCAwIDgxLjM5NDg3MiAxNjIuNTI3MTc5ek02MDQuMTg2MjU2IDEwMjRoLTc5LjQyNTY0MXYtNzkuNTU2OTIzaDc5LjQyNTY0MVYxMDI0eiBtLTI5LjAzOTU4OS0yODAuNjgxMDI2YTI4LjM1NjkyMyAyOC4zNTY5MjMgMCAwIDEgMTEuMjY0LTIxLjc5MjgybDczLjUxNzk0OC02Ny40Nzg5NzUtNjcuMDU4ODcxLTYwLjEyNzE3OWEyOS43NDg1MTMgMjkuNzQ4NTEzIDAgMCAxIDI0LjE1NTg5Ny01My41NjMwNzcgNTAuODMyNDEgNTAuODMyNDEgMCAwIDEgMzguMDcxNzk1IDE2LjI3ODk3NGw1My4xMTY3MTggNTUuMTM4NDYyIDU0LjE5MzIzMS01NS4xMzg0NjJhNTAuOTExMTc5IDUwLjkxMTE3OSAwIDAgMSAzNS40NDYxNTMtMTYuMjc4OTc0IDMzLjQ1MDY2NyAzMy40NTA2NjcgMCAwIDEgMzguMDcxNzk1IDI3LjU2OTIzMSAzMC43OTg3NjkgMzAuNzk4NzY5IDAgMCAxLTExLjIxMTQ4NyAyMS43OTI4MmwtNjkuODQyMDUxIDYzLjI3Nzk0OSA3MS44OTAwNTEgNjQuMzI4MjA1YTI5LjcyMjI1NiAyOS43MjIyNTYgMCAwIDEtMjQuMTAzMzg0IDUzLjU2MzA3NyA1MS44MDM4OTcgNTEuODAzODk3IDAgMCAxLTM4LjA5ODA1Mi0xNi4yNzg5NzRsLTU3Ljk3NDE1NC01OS4zMzk0ODctNTcuOTIxNjQxIDU5LjMzOTQ4N2E1MC41NDM1OSA1MC41NDM1OSAwIDAgMS0zNS40NDYxNTMgMTYuMDE2NDEgMzMuMzE5Mzg1IDMzLjMxOTM4NSAwIDAgMS0zOC4yMDMwNzctMjcuMzA2NjY3eiBtMjI3LjQ4NTUzOCAyNy41NjkyMzF6Ii8+PC9zdmc+;" parent="1" vertex="1">
          <mxGeometry x="24" y="-169.8" width="102.01" height="94.61" as="geometry" />
        </mxCell>
        <mxCell id="GdjG1Uhx_Fd8zdyyqZ3t-12" value="&lt;font style=&quot;font-size: 25px;&quot; color=&quot;#4a919b&quot;&gt;KCP&lt;/font&gt;" style="text;html=1;strokeColor=none;fillColor=none;align=center;verticalAlign=middle;whiteSpace=wrap;rounded=0;" parent="1" vertex="1">
          <mxGeometry x="392" y="-51" width="60" height="30" as="geometry" />
        </mxCell>
        <mxCell id="ErV8i_QmtO4-MUSccsJL-6" style="edgeStyle=orthogonalEdgeStyle;rounded=0;orthogonalLoop=1;jettySize=auto;html=1;exitX=0;exitY=0.5;exitDx=0;exitDy=0;strokeWidth=2;endArrow=none;endFill=0;strokeColor=#FDD276;startArrow=classicThin;startFill=1;entryX=1;entryY=0.5;entryDx=0;entryDy=0;" parent="1" edge="1">
          <mxGeometry relative="1" as="geometry">
            <mxPoint x="525.4900000000001" y="-156.00000000000006" as="targetPoint" />
            <mxPoint x="551" y="-155.5" as="sourcePoint" />
          </mxGeometry>
        </mxCell>
        <mxCell id="ErV8i_QmtO4-MUSccsJL-1" value="&lt;span style=&quot;font-size: 16px;&quot;&gt;ikcp_output&lt;/span&gt;" style="text;html=1;strokeColor=none;fillColor=#9AC7BF;align=center;verticalAlign=middle;whiteSpace=wrap;rounded=1;fontColor=#4D4D4D;" parent="1" vertex="1">
          <mxGeometry x="552" y="-179" width="94.51" height="47" as="geometry" />
        </mxCell>
        <mxCell id="ErV8i_QmtO4-MUSccsJL-7" style="edgeStyle=orthogonalEdgeStyle;rounded=0;orthogonalLoop=1;jettySize=auto;html=1;strokeWidth=2;endArrow=classicThin;endFill=1;strokeColor=#FDD276;startArrow=none;startFill=0;" parent="1" edge="1">
          <mxGeometry relative="1" as="geometry">
            <mxPoint x="531.0384615384614" y="-83.53846153846155" as="targetPoint" />
            <mxPoint x="567.5" y="-84" as="sourcePoint" />
          </mxGeometry>
        </mxCell>
        <mxCell id="ErV8i_QmtO4-MUSccsJL-8" value="&lt;span style=&quot;font-size: 16px;&quot;&gt;ikcp_input&lt;/span&gt;" style="text;html=1;strokeColor=none;fillColor=#9AC7BF;align=center;verticalAlign=middle;whiteSpace=wrap;rounded=1;fontColor=#4D4D4D;" parent="1" vertex="1">
          <mxGeometry x="552" y="-110" width="94.51" height="47" as="geometry" />
        </mxCell>
        <mxCell id="ErV8i_QmtO4-MUSccsJL-9" value="" style="rounded=1;whiteSpace=wrap;html=1;fillColor=none;dashed=1;strokeWidth=2;strokeColor=#4A919B;" parent="1" vertex="1">
          <mxGeometry x="702.26" y="-188.5" width="106" height="134" as="geometry" />
        </mxCell>
        <mxCell id="ErV8i_QmtO4-MUSccsJL-10" value="&lt;span style=&quot;font-size: 16px;&quot;&gt;sendto&lt;/span&gt;" style="text;html=1;strokeColor=none;fillColor=#6DB5A8;align=center;verticalAlign=middle;whiteSpace=wrap;rounded=1;fontColor=#4D4D4D;" parent="1" vertex="1">
          <mxGeometry x="708" y="-178" width="94.51" height="47" as="geometry" />
        </mxCell>
        <mxCell id="ErV8i_QmtO4-MUSccsJL-11" value="&lt;span style=&quot;font-size: 16px;&quot;&gt;recvfrom&lt;/span&gt;" style="text;html=1;strokeColor=none;fillColor=#6DB5A8;align=center;verticalAlign=middle;whiteSpace=wrap;rounded=1;fontColor=#4D4D4D;" parent="1" vertex="1">
          <mxGeometry x="708" y="-110" width="94.51" height="47" as="geometry" />
        </mxCell>
        <mxCell id="ErV8i_QmtO4-MUSccsJL-12" value="" style="shape=flexArrow;endArrow=none;startArrow=classic;html=1;rounded=0;fillColor=#F19C99;strokeColor=none;fontColor=#4D4D4D;endFill=0;" parent="1" edge="1">
          <mxGeometry width="100" height="100" relative="1" as="geometry">
            <mxPoint x="655" y="-84.00000000000003" as="sourcePoint" />
            <mxPoint x="697" y="-84.00000000000003" as="targetPoint" />
          </mxGeometry>
        </mxCell>
        <mxCell id="ErV8i_QmtO4-MUSccsJL-13" value="" style="shape=flexArrow;endArrow=none;startArrow=classic;html=1;rounded=0;fillColor=#F19C99;strokeColor=none;fontColor=#4D4D4D;endFill=0;" parent="1" edge="1">
          <mxGeometry width="100" height="100" relative="1" as="geometry">
            <mxPoint x="698" y="-155" as="sourcePoint" />
            <mxPoint x="656" y="-155" as="targetPoint" />
          </mxGeometry>
        </mxCell>
        <mxCell id="ErV8i_QmtO4-MUSccsJL-14" value="&lt;font style=&quot;font-size: 25px;&quot; color=&quot;#4a919b&quot;&gt;UDP&lt;/font&gt;" style="text;html=1;strokeColor=none;fillColor=none;align=center;verticalAlign=middle;whiteSpace=wrap;rounded=0;" parent="1" vertex="1">
          <mxGeometry x="725.25" y="-51" width="60" height="30" as="geometry" />
        </mxCell>
        <mxCell id="aeanWiefW0z4X_wjgR15-45" value="&lt;font style=&quot;font-size: 18px;&quot; color=&quot;#595959&quot;&gt;data&lt;/font&gt;" style="rounded=1;whiteSpace=wrap;html=1;fontColor=#4A919B;fillColor=#9AC7BF;strokeColor=none;" parent="1" vertex="1">
          <mxGeometry x="126.00999999999999" y="-232.5" width="45" height="44" as="geometry" />
        </mxCell>
        <mxCell id="aeanWiefW0z4X_wjgR15-46" value="&lt;font style=&quot;&quot;&gt;&lt;br&gt;&lt;/font&gt;" style="text;html=1;strokeColor=none;fillColor=#FDD276;align=center;verticalAlign=middle;whiteSpace=wrap;rounded=1;fontColor=#4D4D4D;" parent="1" vertex="1">
          <mxGeometry x="314.26" y="-180" width="98.49" height="48" as="geometry" />
        </mxCell>
        <mxCell id="aeanWiefW0z4X_wjgR15-47" value="" style="curved=1;endArrow=classic;html=1;rounded=0;exitX=1;exitY=0.5;exitDx=0;exitDy=0;strokeColor=#808080;dashed=1;strokeWidth=2;" parent="1" source="aeanWiefW0z4X_wjgR15-45" target="aeanWiefW0z4X_wjgR15-46" edge="1">
          <mxGeometry width="50" height="50" relative="1" as="geometry">
            <mxPoint x="220" y="-232.5" as="sourcePoint" />
            <mxPoint x="270" y="-182.5" as="targetPoint" />
            <Array as="points">
              <mxPoint x="261" y="-210" />
              <mxPoint x="220" y="-182.5" />
            </Array>
          </mxGeometry>
        </mxCell>
        <mxCell id="aeanWiefW0z4X_wjgR15-48" value="&lt;font style=&quot;font-size: 16px;&quot; color=&quot;#4a919b&quot;&gt;snd_queue&lt;/font&gt;" style="text;html=1;strokeColor=none;fillColor=none;align=center;verticalAlign=middle;whiteSpace=wrap;rounded=0;" parent="1" vertex="1">
          <mxGeometry x="333.5" y="-139" width="60" height="30" as="geometry" />
        </mxCell>
        <mxCell id="aeanWiefW0z4X_wjgR15-49" value="&lt;font style=&quot;font-size: 11px;&quot; color=&quot;#595959&quot;&gt;seg6&lt;br&gt;&lt;/font&gt;" style="rounded=1;whiteSpace=wrap;html=1;fontColor=#4A919B;fillColor=#9AC7BF;strokeColor=#4D4D4D;" parent="1" vertex="1">
          <mxGeometry x="320" y="-178" width="29" height="44" as="geometry" />
        </mxCell>
        <mxCell id="aeanWiefW0z4X_wjgR15-52" value="&lt;font color=&quot;#4d4d4d&quot; style=&quot;font-size: 13px;&quot;&gt;1.将数据改造为IKCPSEG&lt;/font&gt;" style="text;html=1;strokeColor=none;fillColor=none;align=center;verticalAlign=middle;whiteSpace=wrap;rounded=0;" parent="1" vertex="1">
          <mxGeometry x="199" y="-242" width="82" height="30" as="geometry" />
        </mxCell>
        <mxCell id="aeanWiefW0z4X_wjgR15-53" value="&lt;font style=&quot;&quot;&gt;&lt;br&gt;&lt;/font&gt;" style="text;html=1;strokeColor=none;fillColor=#FDD276;align=center;verticalAlign=middle;whiteSpace=wrap;rounded=1;fontColor=#4D4D4D;" parent="1" vertex="1">
          <mxGeometry x="431" y="-180" width="98.49" height="48" as="geometry" />
        </mxCell>
        <mxCell id="aeanWiefW0z4X_wjgR15-55" style="edgeStyle=orthogonalEdgeStyle;rounded=0;orthogonalLoop=1;jettySize=auto;html=1;exitX=0;exitY=0.5;exitDx=0;exitDy=0;strokeWidth=2;endArrow=none;endFill=0;strokeColor=#FDD276;startArrow=classicThin;startFill=1;entryX=1;entryY=0.5;entryDx=0;entryDy=0;" parent="1" edge="1">
          <mxGeometry relative="1" as="geometry">
            <mxPoint x="405.25" y="-156.14" as="targetPoint" />
            <mxPoint x="431.25" y="-156.14" as="sourcePoint" />
          </mxGeometry>
        </mxCell>
        <mxCell id="aeanWiefW0z4X_wjgR15-56" value="&lt;font style=&quot;font-size: 16px;&quot; color=&quot;#4a919b&quot;&gt;snd_buf&lt;/font&gt;" style="text;html=1;strokeColor=none;fillColor=none;align=center;verticalAlign=middle;whiteSpace=wrap;rounded=0;" parent="1" vertex="1">
          <mxGeometry x="450.24" y="-139" width="60" height="30" as="geometry" />
        </mxCell>
        <mxCell id="aeanWiefW0z4X_wjgR15-57" value="&lt;font style=&quot;font-size: 11px;&quot; color=&quot;#595959&quot;&gt;seg5&lt;br&gt;&lt;/font&gt;" style="rounded=1;whiteSpace=wrap;html=1;fontColor=#4A919B;fillColor=#9AC7BF;strokeColor=#4D4D4D;" parent="1" vertex="1">
          <mxGeometry x="349" y="-178" width="29" height="44" as="geometry" />
        </mxCell>
        <mxCell id="aeanWiefW0z4X_wjgR15-58" value="&lt;font style=&quot;font-size: 11px;&quot; color=&quot;#595959&quot;&gt;seg4&lt;br&gt;&lt;/font&gt;" style="rounded=1;whiteSpace=wrap;html=1;fontColor=#4A919B;fillColor=#9AC7BF;strokeColor=#4D4D4D;" parent="1" vertex="1">
          <mxGeometry x="378" y="-178" width="29" height="44" as="geometry" />
        </mxCell>
        <mxCell id="aeanWiefW0z4X_wjgR15-59" value="&lt;font style=&quot;font-size: 11px;&quot; color=&quot;#595959&quot;&gt;seg3&lt;br&gt;&lt;/font&gt;" style="rounded=1;whiteSpace=wrap;html=1;fontColor=#4A919B;fillColor=#9AC7BF;strokeColor=#4D4D4D;" parent="1" vertex="1">
          <mxGeometry x="465" y="-178" width="29" height="44" as="geometry" />
        </mxCell>
        <mxCell id="aeanWiefW0z4X_wjgR15-60" value="&lt;font style=&quot;font-size: 11px;&quot; color=&quot;#595959&quot;&gt;seg2&lt;br&gt;&lt;/font&gt;" style="rounded=1;whiteSpace=wrap;html=1;fontColor=#4A919B;fillColor=#9AC7BF;strokeColor=#4D4D4D;" parent="1" vertex="1">
          <mxGeometry x="494" y="-178" width="29" height="44" as="geometry" />
        </mxCell>
        <mxCell id="aeanWiefW0z4X_wjgR15-62" value="&lt;font style=&quot;font-size: 11px;&quot; color=&quot;#595959&quot;&gt;seg4&lt;br&gt;&lt;/font&gt;" style="rounded=1;whiteSpace=wrap;html=1;fontColor=#4A919B;fillColor=#9AC7BF;strokeColor=#4D4D4D;dashed=1;" parent="1" vertex="1">
          <mxGeometry x="436" y="-178" width="29" height="44" as="geometry" />
        </mxCell>
        <mxCell id="aeanWiefW0z4X_wjgR15-63" value="&lt;font color=&quot;#4d4d4d&quot; style=&quot;font-size: 13px;&quot;&gt;2.数据从snd_queue移动到snd_buf&lt;/font&gt;" style="text;html=1;strokeColor=none;fillColor=none;align=center;verticalAlign=middle;whiteSpace=wrap;rounded=0;" parent="1" vertex="1">
          <mxGeometry x="392" y="-228" width="82" height="30" as="geometry" />
        </mxCell>
        <mxCell id="aeanWiefW0z4X_wjgR15-64" value="&lt;font color=&quot;#4d4d4d&quot; style=&quot;font-size: 13px;&quot;&gt;3.在snd_buf做可靠性逻辑，比如重传&lt;/font&gt;" style="text;html=1;strokeColor=none;fillColor=none;align=center;verticalAlign=middle;whiteSpace=wrap;rounded=0;" parent="1" vertex="1">
          <mxGeometry x="505" y="-243" width="85.76" height="60" as="geometry" />
        </mxCell>
        <mxCell id="aeanWiefW0z4X_wjgR15-65" value="&lt;font style=&quot;&quot;&gt;&lt;br&gt;&lt;/font&gt;" style="text;html=1;strokeColor=none;fillColor=#FDD276;align=center;verticalAlign=middle;whiteSpace=wrap;rounded=1;fontColor=#4D4D4D;" parent="1" vertex="1">
          <mxGeometry x="314.51" y="-111" width="215.49" height="48" as="geometry" />
        </mxCell>
        <mxCell id="aeanWiefW0z4X_wjgR15-66" value="&lt;span style=&quot;font-size: 25px;&quot;&gt;&lt;font color=&quot;#808080&quot;&gt;可靠性逻辑&lt;/font&gt;&lt;/span&gt;" style="text;html=1;strokeColor=none;fillColor=none;align=center;verticalAlign=middle;whiteSpace=wrap;rounded=0;" parent="1" vertex="1">
          <mxGeometry x="357.26" y="-101.5" width="130" height="30" as="geometry" />
        </mxCell>
      </root>
    </mxGraphModel>
  </diagram>
</mxfile>
